<svg xmlns="http://www.w3.org/2000/svg" viewBox="0 0 512 512"><path d="M122.2,76c54.2,40.7,112.4,123.1,133.8,167.3c21.4-44.2,79.6-126.7,133.8-167.3c39.1-29.3,102.4-52,102.4,20.2c0,14.4-8.3,121.2-13.1,138.5c-16.9,60.3-78.3,75.6-133,66.3c95.5,16.3,119.8,70.1,67.3,124c-99.7,102.3-143.3-25.7-154.4-58.4c-2-6-3-8.8-3-6.4c0-2.4-1,0.4-3,6.4c-11.2,32.8-54.8,160.7-154.4,58.4c-52.5-53.9-28.2-107.7,67.3-124c-54.7,9.3-116.1-6.1-133-66.3c-4.9-17.3-13.1-124.1-13.1-138.5C19.8,24,83.1,46.7,122.2,76L122.2,76z"/></svg>
